<svg xmlns="http://www.w3.org/2000/svg" width="32" height="32" viewBox="0 0 32 32">
  <g id="icon-inputdata-active" transform="translate(0 -0.5)">
    <path id="Caminho_122" data-name="Caminho 122" d="M0,0H32V32H0Z" transform="translate(0 0.5)" fill="none"/>
    <g id="Grupo_215" data-name="Grupo 215" transform="translate(3 3.5)">
      <path id="Caminho_149" data-name="Caminho 149" d="M21.778,3H5.889A2.9,2.9,0,0,0,3,5.889V26.111A2.9,2.9,0,0,0,5.889,29H26.111A2.9,2.9,0,0,0,29,26.111V10.222ZM10.222,8.778h4.333A1.449,1.449,0,0,1,16,10.222h0a1.449,1.449,0,0,1-1.444,1.444H10.222a1.449,1.449,0,0,1-1.444-1.444h0A1.449,1.449,0,0,1,10.222,8.778ZM21.778,23.222H10.222a1.449,1.449,0,0,1-1.444-1.444h0a1.449,1.449,0,0,1,1.444-1.444H21.778a1.449,1.449,0,0,1,1.444,1.444h0A1.449,1.449,0,0,1,21.778,23.222Zm0-5.778H10.222A1.449,1.449,0,0,1,8.778,16h0a1.449,1.449,0,0,1,1.444-1.444H21.778A1.449,1.449,0,0,1,23.222,16h0A1.449,1.449,0,0,1,21.778,17.444Zm-1.444-7.222V5.889l5.778,5.778H21.778A1.449,1.449,0,0,1,20.333,10.222Z" transform="translate(-3 -3)" fill="#ccdfef"/>
    </g>
  </g>
</svg>
