<svg id="icon_group" xmlns="http://www.w3.org/2000/svg" width="32" height="32" viewBox="0 0 32 32">
  <path id="Caminho_187" data-name="Caminho 187" d="M0,0H32V32H0Z" fill="none"/>
  <path id="Caminho_188" data-name="Caminho 188" d="M21,13a4,4,0,1,0-4-4A3.983,3.983,0,0,0,21,13ZM10.333,13a4,4,0,1,0-4-4A3.983,3.983,0,0,0,10.333,13Zm0,2.667C7.227,15.667,1,17.227,1,20.333v2a1.337,1.337,0,0,0,1.333,1.333h16a1.337,1.337,0,0,0,1.333-1.333v-2C19.667,17.227,13.44,15.667,10.333,15.667Zm10.667,0c-.387,0-.827.027-1.293.067.027.013.04.04.053.053a5.546,5.546,0,0,1,2.573,4.547v2a4.006,4.006,0,0,1-.24,1.333H29a1.337,1.337,0,0,0,1.333-1.333v-2C30.333,17.227,24.107,15.667,21,15.667Z" transform="translate(0.333 1.667)" fill="#ccdfef"/>
</svg>
