<svg xmlns="http://www.w3.org/2000/svg" width="24" height="24" viewBox="0 0 24 24">
  <g id="Grupo_1094" data-name="Grupo 1094" transform="translate(-845 -684)">
    <path id="Caminho_343" data-name="Caminho 343" d="M0,0H24V24H0Z" transform="translate(845 684)" fill="none"/>
    <path id="Caminho_344" data-name="Caminho 344" d="M19,11H7.83l4.88-4.88a1.008,1.008,0,0,0,0-1.42,1,1,0,0,0-1.41,0L4.71,11.29a1,1,0,0,0,0,1.41l6.59,6.59a1,1,0,0,0,1.41-1.41L7.83,13H19a1,1,0,0,0,0-2Z" transform="translate(845 684)" fill="#0062b3"/>
  </g>
</svg>
