<svg xmlns="http://www.w3.org/2000/svg" xmlns:xlink="http://www.w3.org/1999/xlink" width="56" height="56" viewBox="0 0 56 56">
  <defs>
    <clipPath id="clip-path">
      <rect id="Retângulo_1512" data-name="Retângulo 1512" width="50" height="56" transform="translate(-1882 2443)" fill="#d53131"/>
    </clipPath>
    <clipPath id="clip-path-2">
      <rect id="Retângulo_2003" data-name="Retângulo 2003" width="129.046" height="55.552" fill="#fcfcfc"/>
    </clipPath>
  </defs>
  <g id="logo-client" transform="translate(-227.439 -251.036)">
    <g id="cm-capital" transform="translate(2109.439 -2191.964)">
      <rect id="Retângulo_1513" data-name="Retângulo 1513" width="56" height="56" transform="translate(-1882 2443)" fill="none"/>
      <g id="Grupo_de_máscara_3" data-name="Grupo de máscara 3" transform="translate(3)" clip-path="url(#clip-path)">
        <g id="Grupo_1332" data-name="Grupo 1332" transform="translate(-1881.5 2443)">
          <g id="Grupo_1330" data-name="Grupo 1330" clip-path="url(#clip-path-2)">
            <path id="Caminho_380" data-name="Caminho 380" d="M1.014,66.7A2.187,2.187,0,0,1,.508,63.45a23.862,23.862,0,0,1,5.413-4.775,10.167,10.167,0,0,1,13.861,2.688,5.546,5.546,0,0,0,9.024,0,10.167,10.167,0,0,1,13.861-2.688,23.841,23.841,0,0,1,5.4,4.758,2.186,2.186,0,0,1-.524,3.257l-.127.08A2.252,2.252,0,0,1,44.5,66.3a19.366,19.366,0,0,0-4.427-3.852,5.506,5.506,0,0,0-2.927-.836,5.564,5.564,0,0,0-4.515,2.313,10.1,10.1,0,0,1-8.3,4.3h-.061a10.1,10.1,0,0,1-8.3-4.3,5.563,5.563,0,0,0-4.515-2.313,5.5,5.5,0,0,0-2.927.836,19.273,19.273,0,0,0-4.446,3.877,2.237,2.237,0,0,1-2.92.464Z" transform="translate(0 -19.782)" fill="#fcfcfc"/>
            <path id="Caminho_381" data-name="Caminho 381" d="M43.043,74.9v1.245a1.6,1.6,0,0,1-1.613,1.6H12.4a1.6,1.6,0,0,1-1.613-1.6v-1.26A1.614,1.614,0,0,0,7.9,73.9l-.067.088a1.556,1.556,0,0,0-.31.943v4.441a1.6,1.6,0,0,0,1.612,1.6h35.55a1.6,1.6,0,0,0,1.613-1.6V74.947a1.556,1.556,0,0,0-.31-.943l-.067-.088a1.614,1.614,0,0,0-2.88.987" transform="translate(-2.61 -25.417)" fill="#fcfcfc"/>
            <path id="Caminho_382" data-name="Caminho 382" d="M10.784,34.392V4.822a1.6,1.6,0,0,1,1.613-1.6H41.43a1.6,1.6,0,0,1,1.613,1.6V34.4a1.594,1.594,0,0,0,1.04,1.491l.036.014A1.609,1.609,0,0,0,46.3,34.411V1.6A1.6,1.6,0,0,0,44.689,0H9.138A1.6,1.6,0,0,0,7.526,1.6V34.4A1.609,1.609,0,0,0,9.706,35.9l.037-.014a1.594,1.594,0,0,0,1.042-1.492" transform="translate(-2.61)" fill="#fcfcfc"/>
            <path id="Caminho_383" data-name="Caminho 383" d="M42.386,31.941l.037.11a8.21,8.21,0,0,1-2.654,6.533,10.512,10.512,0,0,1-7.368,2.49,9.962,9.962,0,0,1-7.646-3.151,11.361,11.361,0,0,1-2.932-8.058v-5.09a11.485,11.485,0,0,1,2.9-8.058,9.75,9.75,0,0,1,7.553-3.17,10.978,10.978,0,0,1,7.508,2.408,8.125,8.125,0,0,1,2.663,6.6l-.037.11H40.957a3.5,3.5,0,0,1-3.281-2.368,4.487,4.487,0,0,0-1.1-1.739A5.945,5.945,0,0,0,32.27,17.13a5.138,5.138,0,0,0-4.352,2.159,8.88,8.88,0,0,0-1.605,5.448v5.127a8.838,8.838,0,0,0,1.634,5.485A5.284,5.284,0,0,0,32.4,37.509a5.708,5.708,0,0,0,4.2-1.434,4.528,4.528,0,0,0,1.079-1.75,3.473,3.473,0,0,1,3.261-2.385Z" transform="translate(-7.569 -4.698)" fill="#fcfcfc"/>
            <path id="Caminho_384" data-name="Caminho 384" d="M93.889,38.005l.026.077A5.7,5.7,0,0,1,92.07,42.62a7.3,7.3,0,0,1-5.119,1.73,6.92,6.92,0,0,1-5.313-2.189,7.893,7.893,0,0,1-2.038-5.6V33.026a7.982,7.982,0,0,1,2.012-5.6,6.775,6.775,0,0,1,5.248-2.2A7.625,7.625,0,0,1,92.077,26.9a5.643,5.643,0,0,1,1.85,4.583l-.025.077h-2.6a.447.447,0,0,1-.447-.415A3.594,3.594,0,0,0,89.853,28.7a4.129,4.129,0,0,0-2.992-.99,3.57,3.57,0,0,0-3.023,1.5A6.169,6.169,0,0,0,82.722,33v3.562a6.141,6.141,0,0,0,1.135,3.811,3.671,3.671,0,0,0,3.1,1.5,3.966,3.966,0,0,0,2.92-1,3.668,3.668,0,0,0,.987-2.464.444.444,0,0,1,.447-.409Z" transform="translate(-27.609 -8.749)" fill="#fcfcfc"/>
            <path id="Caminho_385" data-name="Caminho 385" d="M109.341,44.4a3.947,3.947,0,0,0,2.121-.587,3.055,3.055,0,0,0,1.218-1.251.445.445,0,0,0,.039-.189v-1.5a.448.448,0,0,0-.45-.446h-2.038a3.161,3.161,0,0,0-2.14.671,2.028,2.028,0,0,0-.774,1.577,1.6,1.6,0,0,0,.522,1.258,2.189,2.189,0,0,0,1.5.466m4.164,2.221a.448.448,0,0,1-.432-.317q-.1-.358-.18-.7a.458.458,0,0,0-.779-.21,5.656,5.656,0,0,1-1.059.843,4.378,4.378,0,0,1-2.36.658,4.666,4.666,0,0,1-3.346-1.111,4.012,4.012,0,0,1-1.167-3.052,3.591,3.591,0,0,1,1.6-3.121,7.78,7.78,0,0,1,4.5-1.117h1.987a.448.448,0,0,0,.45-.446V37.28a2.244,2.244,0,0,0-.638-1.7,2.567,2.567,0,0,0-1.85-.613,2.651,2.651,0,0,0-1.7.5,1.591,1.591,0,0,0-.594.933.46.46,0,0,1-.442.377l-2.613.01-.013-.076a3.41,3.41,0,0,1,1.476-2.9,6.3,6.3,0,0,1,4.082-1.264,6,6,0,0,1,3.933,1.226,4.294,4.294,0,0,1,1.5,3.524v6.141a11.265,11.265,0,0,0,.116,1.641,8.738,8.738,0,0,0,.2.979.444.444,0,0,1-.432.559Z" transform="translate(-36.136 -11.292)" fill="#fcfcfc"/>
            <path id="Caminho_386" data-name="Caminho 386" d="M135.526,39.909a6.675,6.675,0,0,0-.806-3.467,2.627,2.627,0,0,0-2.4-1.347,3.153,3.153,0,0,0-1.664.415,3.045,3.045,0,0,0-1.033,1.048.446.446,0,0,0-.063.233v5.993a.449.449,0,0,0,.065.236,2.872,2.872,0,0,0,1.031,1.008,3.373,3.373,0,0,0,1.69.389,2.7,2.7,0,0,0,2.392-1.168,5.372,5.372,0,0,0,.793-3.07Zm3.121.268a7.735,7.735,0,0,1-1.432,4.865,4.75,4.75,0,0,1-3.984,1.851,4.976,4.976,0,0,1-2.1-.421,4.226,4.226,0,0,1-.851-.521.44.44,0,0,0-.722.328v5.212a.447.447,0,0,1-.45.445h-2.233a.448.448,0,0,1-.45-.445V33.256a.448.448,0,0,1,.45-.446h1.816a.449.449,0,0,1,.443.368l.074.418a.452.452,0,0,0,.769.228,4.423,4.423,0,0,1,1.018-.759,4.565,4.565,0,0,1,2.2-.511,4.649,4.649,0,0,1,4.017,2.024,9.014,9.014,0,0,1,1.438,5.33Z" transform="translate(-43.849 -11.292)" fill="#fcfcfc"/>
            <path id="Caminho_387" data-name="Caminho 387" d="M151.6,43.52h-2.233a.447.447,0,0,1-.45-.445V30.152a.448.448,0,0,1,.45-.445H151.6a.448.448,0,0,1,.45.445V43.075a.447.447,0,0,1-.45.445m0-17.2h-2.233a.447.447,0,0,1-.45-.445V24.049a.448.448,0,0,1,.45-.446H151.6a.448.448,0,0,1,.45.446v1.828a.447.447,0,0,1-.45.445" transform="translate(-51.65 -8.187)" fill="#fcfcfc"/>
            <path id="Caminho_388" data-name="Caminho 388" d="M161.583,28.251v2.467a.448.448,0,0,0,.45.445h1.6a.448.448,0,0,1,.45.445v1.407a.448.448,0,0,1-.45.445h-1.6a.448.448,0,0,0-.45.446V41.1a1.651,1.651,0,0,0,.374,1.219,1.362,1.362,0,0,0,.993.364,2.783,2.783,0,0,0,.5-.045,3,3,0,0,0,.464-.121l.286,1.944a.445.445,0,0,1-.275.479,4.08,4.08,0,0,1-.624.188,5.3,5.3,0,0,1-1.142.121,3.634,3.634,0,0,1-2.714-1,4.342,4.342,0,0,1-.987-3.147V33.908a.448.448,0,0,0-.45-.446h-1.227a.447.447,0,0,1-.45-.445V31.609a.447.447,0,0,1,.45-.445h1.227a.447.447,0,0,0,.45-.445V28.251a.448.448,0,0,1,.45-.445h2.221a.448.448,0,0,1,.45.445" transform="translate(-54.224 -9.644)" fill="#fcfcfc"/>
            <path id="Caminho_389" data-name="Caminho 389" d="M175.583,44.4a3.947,3.947,0,0,0,2.121-.587,3.055,3.055,0,0,0,1.218-1.251.445.445,0,0,0,.039-.189v-1.5a.448.448,0,0,0-.45-.446h-2.038a3.161,3.161,0,0,0-2.14.671,2.028,2.028,0,0,0-.774,1.577,1.6,1.6,0,0,0,.522,1.258,2.189,2.189,0,0,0,1.5.466m4.164,2.221a.448.448,0,0,1-.432-.317q-.1-.358-.18-.7a.458.458,0,0,0-.779-.21,5.657,5.657,0,0,1-1.059.843,4.378,4.378,0,0,1-2.36.658,4.666,4.666,0,0,1-3.346-1.111,4.012,4.012,0,0,1-1.167-3.052,3.593,3.593,0,0,1,1.6-3.121,7.78,7.78,0,0,1,4.5-1.117h1.987a.448.448,0,0,0,.45-.446V37.28a2.244,2.244,0,0,0-.638-1.7,2.567,2.567,0,0,0-1.85-.613,2.651,2.651,0,0,0-1.7.5,1.591,1.591,0,0,0-.594.933.46.46,0,0,1-.442.377l-2.613.01-.013-.076a3.41,3.41,0,0,1,1.476-2.9,6.3,6.3,0,0,1,4.082-1.264,6,6,0,0,1,3.933,1.226,4.294,4.294,0,0,1,1.5,3.524v6.141a11.264,11.264,0,0,0,.116,1.641,8.737,8.737,0,0,0,.2.979.444.444,0,0,1-.432.559Z" transform="translate(-59.112 -11.292)" fill="#fcfcfc"/>
            <path id="Caminho_390" data-name="Caminho 390" d="M195.46,43.52h-2.233a.447.447,0,0,1-.45-.445V24.048a.448.448,0,0,1,.45-.445h2.233a.448.448,0,0,1,.45.445V43.075a.447.447,0,0,1-.45.445" transform="translate(-66.864 -8.187)" fill="#fcfcfc"/>
          </g>
        </g>
      </g>
    </g>
  </g>
</svg>
