<svg id="savings_black_24dp_1_" data-name="savings_black_24dp (1)" xmlns="http://www.w3.org/2000/svg" width="32" height="32" viewBox="0 0 32 32">
  <rect id="Retângulo_830" data-name="Retângulo 830" width="32" height="32" fill="none"/>
  <g id="Grupo_524" data-name="Grupo 524" transform="translate(2 2)">
    <path id="Caminho_220" data-name="Caminho 220" d="M26.962,9.816,23.784,6.59a7.7,7.7,0,0,1,.448-1.634,2.154,2.154,0,0,0,.126-1.236A2.184,2.184,0,0,0,22.16,2,6.976,6.976,0,0,0,16.7,4.842h-7A7.754,7.754,0,0,0,2,12.658c0,3.2,1.918,10.629,2.912,14.267A2.812,2.812,0,0,0,7.614,29H10.4a2.83,2.83,0,0,0,2.8-2.842H16A2.83,2.83,0,0,0,18.8,29h2.814A2.824,2.824,0,0,0,24.3,26.968l1.75-5.912,3-1.023A1.42,1.42,0,0,0,30,18.683V11.237a1.415,1.415,0,0,0-1.4-1.421ZM16,11.947H11.8a1.415,1.415,0,0,1-1.4-1.421h0a1.415,1.415,0,0,1,1.4-1.421H16a1.415,1.415,0,0,1,1.4,1.421h0A1.415,1.415,0,0,1,16,11.947Zm5.6,2.842A1.421,1.421,0,1,1,23,13.368,1.415,1.415,0,0,1,21.6,14.79Z" transform="translate(-2 -2)" fill="#ccdfef"/>
  </g>
</svg>
