<svg id="settings_black_24dp" xmlns="http://www.w3.org/2000/svg" width="32" height="32" viewBox="0 0 32 32">
  <rect id="Retângulo_1501" data-name="Retângulo 1501" width="32" height="32" fill="none"/>
  <path id="Caminho_300" data-name="Caminho 300" d="M26.585,16c0-.322-.014-.63-.042-.952l2.625-1.974a1.4,1.4,0,0,0,.367-1.82L26.9,6.732a1.4,1.4,0,0,0-1.764-.588L22.1,7.418a10.729,10.729,0,0,0-1.651-.952l-.409-3.234A1.412,1.412,0,0,0,18.639,2H13.375a1.415,1.415,0,0,0-1.411,1.232l-.409,3.234A10.729,10.729,0,0,0,9.9,7.418L6.868,6.144A1.4,1.4,0,0,0,5.1,6.732L2.465,11.268a1.4,1.4,0,0,0,.367,1.82l2.625,1.974c-.028.308-.042.616-.042.938s.014.63.042.952L2.832,18.926a1.4,1.4,0,0,0-.367,1.82L5.1,25.268a1.4,1.4,0,0,0,1.764.588L9.9,24.582a10.729,10.729,0,0,0,1.651.952l.409,3.234A1.412,1.412,0,0,0,13.361,30h5.264a1.412,1.412,0,0,0,1.4-1.232l.409-3.234a10.729,10.729,0,0,0,1.651-.952l3.034,1.274a1.4,1.4,0,0,0,1.764-.588l2.639-4.522a1.4,1.4,0,0,0-.367-1.82l-2.625-1.974A7.181,7.181,0,0,0,26.585,16ZM16.056,20.9A4.9,4.9,0,1,1,21,16,4.925,4.925,0,0,1,16.056,20.9Z" fill="#ccdfef"/>
</svg>
